<svg width="249" height="140" viewBox="0 0 249 140" fill="none" xmlns="http://www.w3.org/2000/svg">
<path d="M115.8 20.8122L116.354 21.4379C116.261 21.6197 116.109 21.7537 115.93 21.8116C115.752 21.8696 115.56 21.8469 115.396 21.7485C114.792 21.3165 114.085 21.1065 113.371 21.1473C112.657 21.1881 111.972 21.4777 111.41 21.9763L111.783 22.8506C111.717 22.9253 111.637 22.9831 111.549 23.0202C111.462 23.0573 111.368 23.0728 111.274 23.0656C111.181 23.0585 111.09 23.0288 111.007 22.9787C110.925 22.9285 110.853 22.8591 110.796 22.7749C110.744 22.685 110.677 22.6076 110.598 22.5472C110.52 22.4868 110.432 22.4445 110.339 22.4228C110.246 22.4011 110.15 22.4005 110.057 22.4209C109.964 22.4412 109.875 22.4823 109.796 22.5416L109.435 23.5817C108.977 23.4895 108.684 22.6231 108.072 23.2128C107.84 23.6677 108.544 23.6888 108.401 24.1081C108.25 24.1743 108.004 24.36 107.94 24.2992C106.342 22.798 104.907 24.4088 103.462 24.7049C101.987 25.0076 100.552 25.9381 99.0383 25.5208C98.2701 25.3091 97.7802 26.7122 96.8961 25.656C96.5431 25.2342 95.4665 25.5866 94.7334 25.5866L93.7256 26.7259C93.2135 26.7234 92.525 25.3488 92.2185 26.9149C91.9869 28.0984 91.1459 27.2763 90.629 27.6241C89.142 28.6244 87.2804 28.7258 85.8972 30.0326C85.692 30.2269 85.4422 30.5871 85.2607 30.5524C83.7467 30.2608 82.7937 31.5209 81.5792 32.3079C81.5459 32.6515 81.4977 33.1523 81.426 33.8905C80.1321 33.6424 79.0804 34.2937 77.954 34.9401C76.4817 35.7854 74.9036 36.7373 73.1586 36.3412C72.4212 36.1737 71.8574 37.5098 71.0446 36.4288C70.7425 36.0273 70.0781 36.6844 69.9779 37.1054C69.7175 38.1992 68.9343 38.7596 68.3522 39.5577L67.7479 38.9374C66.9066 40.3302 65.2743 40.2549 64.2398 41.3095C64.2362 41.3132 64.1151 41.1693 64.0489 41.0944L63.8403 40.8587L62.6698 42.0964C62.2194 41.089 61.7552 42.1944 61.4362 42.0658C60.1303 41.5377 59.9035 43.5546 58.7955 43.3979C58.738 43.3896 58.5789 43.7787 58.5858 43.7841C59.1481 44.2134 58.8573 44.5016 58.5394 44.942C58.0466 45.6231 57.9018 44.6083 57.525 44.7692C56.8793 45.0446 53.8303 47.085 53.4693 47.8033C53.2637 48.2115 53.1656 48.5113 52.7453 48.4575C51.4946 48.2967 51.0041 50.4252 49.5445 49.7718C49.2209 49.6038 48.9214 49.382 48.6559 49.1138C47.9927 49.5646 48.668 50.4864 48.0842 51.0521C47.4689 51.615 46.7509 52.0166 45.9818 52.2282C45.4222 52.4052 45.0607 52.3155 44.9301 53.224C44.7904 54.1967 43.6714 54.315 42.9987 54.7298C42.3121 55.0785 41.7293 55.644 41.3203 56.3583C45.5378 54.6169 48.4203 51.4164 52.1951 49.9128C52.6294 50.3772 52.171 50.785 51.7927 51.2746C51.4145 51.7642 50.8482 51.8354 50.3986 52.1054C48.9197 52.9925 47.2684 53.5276 46.1552 55.0829C43.4881 56.0386 41.5746 58.3801 39.2462 59.9664C36.7854 61.6425 34.3418 63.5783 32.5519 66.1456C31.4166 67.7623 30.196 69.2999 28.8967 70.75C28.0312 71.8019 27.0661 72.7433 26.0188 73.5571C25.0312 74.2705 23.8174 75.1699 23.5807 76.7919C20.7139 80.2656 19.1178 84.6988 16.6731 88.5026C15.7195 90.0276 15.0559 91.7596 14.7241 93.5891C14.4826 94.9125 13.7338 95.876 13.4361 97.1485C13.0315 98.8779 12.3979 100.463 12.2995 102.359C12.2055 104.161 11.7087 105.964 11.8356 107.818C11.9026 108.796 11.3747 109.852 11.5467 110.615C12.1773 113.264 12.9547 115.866 13.8743 118.405C14.8349 121.161 17.0045 122.399 19.2759 123.423C19.4375 123.497 19.6837 123.357 19.8286 123.445C20.8247 124.057 21.804 124.703 22.7891 125.338C23.7578 124.212 24.7279 126.051 25.6947 125.338C26.7457 126.162 28.0451 125.625 29.0968 126.034C32.1004 127.201 35.1462 126.513 38.155 126.53C40.0129 126.516 41.8493 126.08 43.5554 125.248C45.0918 124.502 46.7442 124.363 48.2667 123.517C49.7142 122.713 51.4397 122.3 52.8229 121.431C55.107 119.996 57.487 118.76 59.7294 117.245C61.235 116.228 62.8168 115.301 64.1699 114.064C65.4702 112.835 66.8474 111.713 68.2908 110.709C68.674 110.404 69.0124 110.034 69.2935 109.611C70.9967 107.368 73.1846 105.714 74.8735 103.407C77.4229 99.9259 80.5564 95.0374 81.5836 89.0422C81.9161 87.1006 82.4681 85.1793 82.6243 83.2005C82.8321 80.5654 81.697 78.8091 79.6119 77.6235C79.0939 77.329 78.505 77.0172 77.9833 76.6533C77.6907 76.4498 77.0761 76.8733 76.5603 76.4465C76.2311 76.1753 75.9326 76.7153 75.6458 77.0205L74.4324 75.7472L74.056 76.9655H70.456L70.0781 75.7977C68.8556 76.5834 68.9441 78.8674 67.1586 78.9745C65.7499 79.0572 64.7958 80.9831 63.2547 80.1039C62.6419 81.6497 62.6419 81.6497 61.238 80.7949C60.1797 81.1977 60.0988 82.9731 58.8968 83.2423C57.7994 83.4875 57.1826 84.5892 56.2022 85.0888C55.1783 85.6767 54.2164 86.3936 53.335 87.2259C51.9724 88.4033 50.6646 89.6605 49.333 90.8842C48.9903 91.1997 48.7437 91.569 48.2217 91.7042C47.2739 91.9499 46.2445 93.7852 46.1077 94.9848C45.9574 96.7106 45.5779 98.4009 44.9817 99.9986C45.128 100.78 45.9328 101.095 46.3202 101.748C49.6323 102.124 52.7834 101.715 55.6798 99.7245C55.224 98.8688 54.8319 98.7113 54.0202 99.2187C53.4714 99.5611 52.9118 98.0438 52.006 98.8581C51.293 96.7366 50.3408 94.8852 50.6551 92.6078C52.5288 90.347 54.428 88.0663 57.2239 86.9931C58.9696 86.3236 61.5913 85.6839 63.0209 85.9216C63.5071 86.0043 63.6944 86.4961 64.1773 86.635C64.982 86.867 64.7713 88.7813 65.962 88.4389C67.1458 88.0981 66.6421 90.1795 67.7062 89.7556C68.2509 90.6203 69.2547 90.8076 69.8506 91.5359C70.6029 92.5367 71.3101 93.5796 71.9698 94.6606C71.2656 95.8793 73.2922 97.0563 72.0133 98.2837C73.399 99.2927 71.4861 100.305 71.9928 101.215C72.6081 102.319 70.0401 101.141 71.2272 102.731C71.5052 103.104 70.2786 103.889 70.0401 104.84C69.8938 105.424 69.1135 105.938 68.4305 106.356C67.1019 107.171 66.2075 108.705 64.8708 109.661C64.249 110.107 63.4156 109.699 63.1596 110.286C62.9027 110.928 62.5516 111.515 62.121 112.023C61.7852 112.35 61.3799 112.573 60.945 112.669C58.7973 113.424 56.665 114.123 54.3743 113.905C52.4816 113.725 50.5644 114.23 48.6863 113.318C47.8775 112.925 47.1199 112.494 46.3484 112.022C44.0624 110.625 41.564 109.765 39.2857 108.267C37.8658 107.315 36.7261 105.911 36.0095 104.23C35.3997 102.933 34.7833 101.64 34.2452 100.296C33.9447 99.683 33.7741 99 33.7466 98.3002C33.8252 96.9263 33.8177 95.5478 33.7243 94.1751C33.4217 91.5359 34.2617 89.1299 35.05 86.8356C35.6719 85.0226 37.0162 83.4929 38.1546 81.9454C40.4398 78.8405 43.5295 76.8001 46.4219 74.5889C50.1075 71.7702 53.9807 69.2785 58.0068 67.136C59.6763 66.3199 61.3844 65.6086 63.1234 65.0055C63.2719 64.9484 63.5521 65.3272 63.8989 65.6063L64.5277 64.3393C67.4308 64.3393 70.1308 64.1854 72.8078 64.3984C74.3493 64.5224 76.0218 64.9207 77.3172 65.797C78.201 66.3946 79.087 65.859 79.8778 66.5538C81.6959 68.1505 83.642 69.5594 85.5113 71.085C86.6293 71.9585 87.6893 72.9233 88.6829 73.9715C90.4523 75.9151 91.6606 78.3298 93.19 80.4703C93.6985 81.1824 94.233 82.2701 93.8558 83.2865C93.463 84.3448 94.8801 85.2757 93.8924 86.2665C94.838 86.8347 94.0753 88.2726 94.9602 88.8719C93.7958 89.4752 93.7958 89.4752 94.3621 90.5852C93.9696 91.4788 93.5913 92.3398 93.2647 93.0842C93.554 93.8058 94.286 93.298 94.4781 94.0875C93.3525 96.1854 93.4798 98.83 92.5484 101.118C92.1058 101.178 91.6632 101.237 91.2637 101.29C90.6495 102.104 91.4967 102.391 91.6946 103.115C90.2314 105.66 89.0015 108.491 87.2489 111.049C85.2476 113.969 82.8098 116.353 80.6278 119.037C79.5757 120.329 78.1267 121.056 77.0468 122.365C76.1096 123.502 75.7508 125.281 74.2177 125.774C74.4306 126.974 73.3474 126.567 72.9373 126.988C72.382 127.555 71.5311 127.599 71.3614 128.787C71.2198 129.78 69.9904 129.646 69.4779 130.378C68.9196 130.191 69.3747 129.376 68.8805 129.149C67.8284 129.032 67.6649 130.331 66.8645 130.638C67.1048 130.943 67.2808 131.168 67.5102 131.46C66.1201 132.328 64.9517 133.669 63.2064 133.599C63.0235 133.591 62.751 133.542 62.6734 133.651C61.2833 135.609 59.109 135.75 57.2455 136.488C55.6985 137.1 54.2755 138.315 52.5046 138.13C51.4277 139.272 49.7896 138.125 48.724 139.314C47.4027 138.872 46.3414 140.152 45.0198 139.985C43.7112 139.892 42.3992 139.88 41.0895 139.949C40.2481 139.949 39.4038 139.947 38.5607 139.949C36.5593 139.956 34.6644 139.009 32.6053 139.231C32.1459 139.251 31.6967 139.075 31.3469 138.738C30.9971 138.401 30.7725 137.927 30.7177 137.411C30.2615 137.705 30.4177 138.059 30.3724 138.397C26.471 137.917 23.0382 135.862 19.4924 134.213C17.2511 133.138 15.0941 131.852 13.0443 130.367C9.74394 128.03 6.80063 125.2 4.97926 121.122C4.1957 119.367 3.43408 117.615 2.71489 115.833C1.97523 114.001 1.79305 111.983 0.95498 110.312C0.38212 109.169 1.01388 108 0.420531 107.059C-0.19842 106.078 -0.0550231 105.266 0.342979 104.206C0.522226 103.73 -0.105138 102.841 0.0294797 102.046C0.544175 98.9962 0.583317 95.8529 1.47516 92.8762C1.89219 91.4834 2.2708 90.0674 2.70172 88.6944C3.16396 87.3211 3.71971 85.9903 4.36397 84.7141C5.48517 82.3805 6.2424 79.7226 8.04914 77.858C8.54372 77.3477 8.7237 76.6252 8.96367 76.0495C10.1734 73.1523 11.9267 70.6541 13.4448 67.9987C15.305 64.7462 17.9366 62.1967 20.3587 59.4731C24.9719 54.2811 30.3983 50.2577 35.6748 46.0354C37.3601 44.6869 39.3603 43.8457 41.1905 42.7196C41.6657 42.3559 42.1094 41.9421 42.5158 41.484H45.3581C46.5287 39.2508 48.4496 37.8981 50.5161 36.8568C52.1988 36.0095 53.7217 34.8718 55.3382 33.9145C56.8746 33.0047 58.4289 32.1313 60.0034 31.3092C61.3408 30.6123 62.3848 29.2051 64.0024 29.1881C64.3518 28.2146 65.0472 29.7931 65.1364 29.1017C65.2462 28.2717 65.7312 28.3159 66.1128 27.9715C66.5477 27.6309 67.0233 27.3619 67.5252 27.1725C69.5349 26.2065 71.319 24.6449 73.3309 23.8642C75.4161 23.0557 77.1913 21.5359 79.2673 20.8962C81.2924 20.2721 82.8888 18.2987 85.1737 18.5803C85.2326 18.5873 85.301 18.436 85.3738 18.3735C87.4124 16.554 90.1139 16.5614 92.3381 15.1037C93.6137 14.2675 95.3165 14.1157 96.8039 13.5322C99.9191 12.3094 103.048 11.113 106.219 10.0948C108.737 9.28677 111.234 8.39931 113.798 7.74053C116.606 7.0218 119.474 6.53877 122.197 5.38333C122.912 5.15395 123.663 5.11811 124.392 5.27871C125.194 5.40277 125.638 4.62945 126.404 4.53433C127.73 4.36892 129.026 3.98763 130.392 3.92477C131.634 3.82405 132.866 3.59087 134.07 3.22836C135.703 2.79042 137.293 2.76271 138.919 2.69737C139.985 2.65602 140.907 1.85665 142.063 2.02951C143.018 2.17259 144.081 2.36737 144.928 1.45054C145.026 1.34468 145.291 1.44723 145.477 1.43441C149.05 1.18918 152.601 0.50725 156.203 0.782669C156.901 0.836017 157.638 1.01467 158.252 0.211568C158.68 -0.348782 158.997 0.691692 159.586 0.601126C161.176 0.358376 162.817 -0.515436 164.379 0.748765C165.11 -0.124638 166.061 0.193376 166.936 0.175594C168.622 0.14127 170.427 -0.262348 171.961 0.284356C173.528 0.843879 175.015 0.70865 176.538 0.780606C178.221 0.863315 179.917 0.685078 181.593 0.836849C182.827 0.948919 183.997 1.49645 185.296 1.49438C186.534 1.49438 187.891 0.859591 189.043 1.94431C190.04 0.714437 190.933 2.47737 191.903 2.07045C192.97 1.62258 193.674 2.96122 194.768 2.75114C195.878 2.53075 197.015 2.52781 198.126 2.74245C200.862 3.31025 203.674 3.33506 206.357 4.06082C207.764 4.45517 209.04 5.30042 210.031 6.49494C211.023 6.62272 210.632 5.76421 211.01 5.30435C211.677 5.38127 212.357 5.22536 213.22 5.62691C214.37 6.15577 215.583 6.48912 216.819 6.61611C218.327 6.77449 220.086 6.7563 221.191 8.42867C224.297 8.17806 227.124 9.45053 229.904 10.706C233.036 12.1208 236.099 13.751 239.128 15.4337C242.682 17.4083 245.566 20.3908 248.169 23.7095C249.298 25.1486 249.23 25.8653 248.247 27.3925C246.74 26.5563 245.281 25.6995 244.101 24.245C243.486 23.4887 242.51 23.0044 241.617 22.6587C237.751 21.1625 233.986 19.3685 229.92 18.4773C228.179 18.0961 226.325 17.7408 224.639 16.8389C224.021 16.5081 223.188 16.6937 222.268 16.6321L220.656 14.8154C219.439 14.6612 220.077 15.9229 219.441 16.0457C216.727 14.6963 216.727 14.6963 215.428 15.2558L215.081 14.1393C214.661 14.4106 214.47 15.0942 213.761 14.6182L213.464 13.6468C212.583 14.3498 211.824 13.9238 210.884 13.6381C210.139 13.4114 209.143 14.5288 208.106 13.9904C208.043 13.696 207.981 13.4081 207.887 12.976C207.033 13.5181 206.208 13.8969 205.384 12.8379C204.659 11.9033 203.472 12.1386 202.706 11.5732C202.564 11.6827 202.457 11.8408 202.401 12.0243C202.344 12.2078 202.342 12.4069 202.393 12.5922C202.757 13.3147 203.674 12.3759 204.12 13.6033C201.929 13.1939 199.88 14.0268 197.805 12.9545C197.198 12.641 196.833 12.5116 196.561 11.7883C196.387 11.3206 195.959 10.6597 195.208 11.0873C195.084 11.9012 196.053 11.9496 196.128 12.9346C194.032 12.5988 191.964 13.3159 189.87 12.4975C189.371 12.3023 188.524 13.3105 188.008 12.7634C187.331 12.0443 186.635 12.2845 185.932 12.249C184.997 12.2022 183.804 12.6427 183.182 12.1423C182.262 11.4012 181.749 12.6121 181.057 12.2432C180.968 12.2029 180.869 12.2029 180.78 12.2432C180.024 12.6307 179.787 11.5096 179.043 11.5298C178.34 11.5484 177.549 12.2717 177.171 11.9169C176.416 11.2081 175.731 12.2564 175.624 12.0852C174.933 10.9839 174.571 12.3255 174.027 12.3267C172.667 12.33 172.085 11.5633 171.729 10.345C170.255 9.94926 169.827 11.4492 168.938 12.1869C168.764 12.0141 168.602 11.7391 168.382 11.6531C167.62 11.3557 167.182 12.5422 166.382 12.2465C165.895 12.0662 165.54 11.8156 164.845 12.1319C163.901 12.5624 162.605 12.4905 162.397 10.6291C162.352 10.2292 161.827 10.2243 161.47 10.484C161.227 10.9546 161.932 10.9753 161.89 11.101L160.934 12.4814C160.146 11.5302 159.154 11.5389 158.199 11.627C157.898 10.8934 157.797 10.1411 157.175 9.76896C156.696 9.90212 156.91 10.4054 156.769 10.7449C156.153 11.2887 155.346 10.771 154.593 11.0691C154.943 12.1353 155.873 11.1345 156.208 11.8491C155.952 12.8896 154.866 12.7018 154.394 13.4205C153.469 12.9288 152.655 12.0753 151.523 12.2477C150.564 12.3941 149.472 11.7672 148.623 12.9036L148.275 11.7755L148.076 11.6675C147.842 12.7014 146.707 12.9872 146.519 14.0739C145.946 13.6091 146.148 12.5025 145.265 12.3867C145.04 12.873 144.36 12.7336 143.978 13.1377C143.294 13.8601 142.648 14.6264 141.951 15.4146C141.02 15.2881 139.954 15.8307 139.073 14.8394C138.739 15.0218 138.949 15.5424 138.743 15.8638C138.61 16.1003 138.462 16.0875 138.348 15.7992C138.04 15.0185 137.746 14.2303 137.479 13.5248C137.028 13.4962 136.76 13.5248 136.708 13.6554C136.152 14.71 137.741 14.875 137.045 15.8166C136.486 16.5196 136.156 15.8236 135.768 15.4266C135.366 15.6566 135.579 16.1801 135.344 16.5382C134.579 16.9704 133.683 16.6966 132.799 17.1916C132.297 17.4662 131.738 17.5772 131.184 17.5123C130.629 17.4473 130.102 17.209 129.661 16.824C129.478 16.6623 129.252 16.5749 129.02 16.5758C128.788 16.5767 128.563 16.6659 128.381 16.829C127.38 18.1271 126.576 16.7405 125.661 16.6334L125.106 17.9625H123.878C123.591 19.7709 122.528 20.1696 121.078 19.787C120.747 19.4128 120.415 19.0385 120.076 18.6539C119.301 19.0207 120.139 20.06 119.318 20.5765C118.208 19.4612 117.017 19.8888 115.8 20.8122ZM127.258 8.0114C125.017 7.37413 123.363 8.65777 121.57 8.59036C120.92 9.70982 119.708 8.67927 118.806 9.59775C118.232 10.1821 116.835 9.94802 115.85 9.96746C114.817 9.98772 114.302 11.0108 113.363 10.9827C111.561 10.9294 109.922 11.8598 108.241 12.3627C106.595 12.8561 104.889 13.2725 103.266 14.076C100.892 15.2521 98.2064 15.4593 95.7954 16.6706C94.2955 17.4236 92.713 17.9612 91.1686 18.5989C89.7865 19.1696 88.4385 19.8999 87.017 20.2754C85.5274 20.6683 84.0298 20.8544 82.9719 22.3171C82.8522 22.4825 82.448 22.4151 82.1777 22.4044C81.6114 22.382 81.0678 22.3659 80.7086 23.0056C80.5682 23.2813 80.3515 23.4971 80.0919 23.6198C79.8323 23.7425 79.5442 23.7653 79.2721 23.6847C78.6718 23.5569 78.2869 23.9225 77.8088 24.3174C76.9034 25.0684 75.9088 25.9459 74.8567 26.151C72.6443 26.5824 71.086 28.7311 68.8077 28.8391C68.2224 30.3837 66.6026 29.9652 65.6284 30.9969C64.7505 31.9249 63.1131 31.8749 62.0969 32.7045C60.0202 34.4 57.1811 34.5116 55.4713 36.9027C55.3868 37.021 55.1366 36.9929 54.9618 37.0231C52.9187 37.3812 51.6563 39.6698 49.5324 39.8281C47.0427 42.0509 43.956 43.1212 41.3979 45.2117C40.337 45.0231 40.1611 46.6661 39.0808 46.5821C37.8682 46.4878 37.562 47.9675 36.7396 48.5816C36.5867 48.6958 36.4927 48.9158 36.3373 49.0196C33.5858 50.8669 30.9596 52.943 28.4804 55.2306C25.4612 57.9028 22.5864 60.7771 19.8714 63.838C19.8045 63.9052 19.7514 63.988 19.7158 64.0808C19.6802 64.1735 19.663 64.274 19.6653 64.3751C19.6677 64.4761 19.6895 64.5754 19.7293 64.666C19.7692 64.7565 19.826 64.8361 19.8959 64.8992C20.0659 64.9894 20.2586 65.0086 20.4399 64.9532C20.6211 64.8979 20.7792 64.7716 20.8858 64.5969C21.5443 63.7243 22.4174 63.1081 23.1267 62.2662C23.9701 61.3577 24.8581 60.5038 25.7866 59.7084C27.7985 57.8297 29.7212 55.7611 31.9395 54.2579C33.8227 52.9821 35.5434 51.4408 37.472 50.2465C39.1657 49.1974 40.9629 48.2909 42.3464 46.6839C44.6481 46.9059 45.593 43.9235 47.7352 43.7688C48.5839 42.2548 50.1086 42.1303 51.371 41.4381C52.5481 40.7929 53.5293 39.6598 54.7265 39.097C58.1677 37.4842 61.1941 34.852 64.8756 33.8475C66.3224 31.7636 68.7985 31.733 70.5687 30.1628C72.0297 28.8668 74.0494 28.5062 75.757 27.5269C78.3652 25.9884 81.049 24.6195 83.7953 23.427C85.1664 22.8526 86.4778 22.0954 87.9414 21.6711C89.7728 21.0913 91.5624 20.3544 93.2947 19.467C96.093 18.143 98.9547 16.9971 101.866 16.0345C104.942 14.9808 108.02 13.9309 111.088 12.8523C113.93 11.8536 116.851 11.1982 119.685 10.247C122.124 9.42572 124.704 9.30497 127.258 8.0114V8.0114ZM77.5857 106.574C78.9322 105.409 78.9213 103.47 79.744 101.967C79.0913 102.297 78.5317 102.824 78.1267 103.49C76.9645 105.803 75.1033 107.377 73.5329 109.255C72.9841 109.91 72.1735 110.372 71.6848 110.936C71.1101 111.597 70.7337 112.897 69.983 113.18C68.6467 113.682 68.162 115.169 67.02 115.827C65.916 116.461 64.9586 117.377 63.9318 118.146C61.9762 119.609 60.318 121.661 57.8502 122.21C57.2989 122.334 56.8921 123.215 56.3328 123.384C55.6356 123.595 55.4659 124.043 54.8502 124.921C56.9024 124.034 58.5383 123.58 59.9371 122.664C62.1364 121.225 64.2954 119.687 66.4285 118.106C70.0542 115.371 73.3924 112.178 76.3785 108.588C76.8412 107.961 77.456 107.5 78.1472 107.263L77.5857 106.574ZM60.221 70.336C59.2838 69.6677 59.0585 70.6388 58.5412 70.7082C57.9299 70.7909 57.2638 70.3981 56.7166 71.0879C55.4468 72.6879 53.4908 73.022 52.0067 74.3623C50.549 75.679 48.6248 76.3779 47.1049 77.707C46.3195 78.3935 45.589 79.0969 44.5442 79.147C44.0438 80.6457 42.5922 81.0435 41.7758 82.2175C40.9157 83.4536 39.8161 84.4751 38.8449 85.616C38.749 85.7285 38.8164 86.0184 38.8035 86.3455C39.1781 86.6123 39.5557 86.7735 39.9398 86.257C40.7061 85.2256 41.9305 84.8923 42.7042 83.8171C43.4987 82.7138 44.5738 81.9285 45.5838 81.0571C48.9373 78.1503 52.4702 75.5183 56.1558 73.1812C57.5107 72.3252 59.0373 71.6879 60.221 70.336Z" fill="#1BA098" fill-opacity="0.1"/>
</svg>
