<?xml version="1.0" encoding="utf-8"?><!DOCTYPE svg PUBLIC "-//W3C//DTD SVG 1.1//EN" "http://www.w3.org/Graphics/SVG/1.1/DTD/svg11.dtd"><svg version="1.1" xmlns="http://www.w3.org/2000/svg" xmlns:xlink="http://www.w3.org/1999/xlink" viewBox="0 0 900 750" width="900" height="750"><g class="svg-logo"><g class="base"><g class="logo-element circle"><circle cx="450" cy="375" r="263" fill="none" stroke="rgba(27,160,152,1)" stroke-width="25"></circle></g></g><g class="swag"><g class="logo-element outline-inner-solid"><circle fill="none" stroke="rgba(222,185,146,1)" stroke-width="15" cx="450" cy="375" r="180"></circle></g></g><g class="text"><g text-anchor="middle" transform="translate(450,400)" class="logo-element single-line"><path d="M158.20-114L158.20-139.80L98-139.80L98-114L111.60-114L111.60-66.40L62.60-139.80L5.20-139.80L5.20-114L16.80-114L16.80-25.80L5-25.80L5 0L66.40 0L66.40-25.80L51-25.80L51-76.20L102 0L145 0L145-114ZM168.20-139.80L168.20-113.40L180.80-113.40L180.80-26.60L168.20-26.60L168.20 0L234.60 0L234.60-26.60L222.20-26.60L222.20-113.40L234.60-113.40L234.60-139.80Z" fill="rgba(27,160,152,1)" transform="translate(-118,28)"></path></g></g></g></svg>