<svg width="28" height="32" viewBox="0 0 28 32" fill="none" xmlns="http://www.w3.org/2000/svg">
<g clip-path="url(#clip0_198_351)">
<path d="M13.9009 8.81245C9.95583 8.81245 6.77368 12.0187 6.77368 15.9937C6.77368 19.9687 9.95583 23.1749 13.9009 23.1749C17.8461 23.1749 21.0282 19.9687 21.0282 15.9937C21.0282 12.0187 17.8461 8.81245 13.9009 8.81245ZM13.9009 20.6624C11.3515 20.6624 9.26729 18.5687 9.26729 15.9937C9.26729 13.4187 11.3453 11.3249 13.9009 11.3249C16.4566 11.3249 18.5346 13.4187 18.5346 15.9937C18.5346 18.5687 16.4504 20.6624 13.9009 20.6624V20.6624ZM22.9821 8.5187C22.9821 9.44995 22.2378 10.1937 21.3197 10.1937C20.3955 10.1937 19.6573 9.4437 19.6573 8.5187C19.6573 7.5937 20.4017 6.8437 21.3197 6.8437C22.2378 6.8437 22.9821 7.5937 22.9821 8.5187ZM27.7026 10.2187C27.5972 7.97495 27.0885 5.98745 25.4571 4.34995C23.832 2.71245 21.8594 2.19995 19.6325 2.08745C17.3374 1.9562 10.4583 1.9562 8.16316 2.08745C5.94248 2.1937 3.96992 2.7062 2.33853 4.3437C0.707143 5.9812 0.204699 7.9687 0.0930453 10.2124C-0.0372178 12.5249 -0.0372178 19.4562 0.0930453 21.7687C0.198496 24.0124 0.707143 25.9999 2.33853 27.6374C3.96992 29.2749 5.93628 29.7874 8.16316 29.8999C10.4583 30.0312 17.3374 30.0312 19.6325 29.8999C21.8594 29.7937 23.832 29.2812 25.4571 27.6374C27.0823 25.9999 27.591 24.0124 27.7026 21.7687C27.8329 19.4562 27.8329 12.5312 27.7026 10.2187V10.2187ZM24.7376 24.2499C24.2538 25.4749 23.3171 26.4187 22.0951 26.9124C20.2652 27.6437 15.9231 27.4749 13.9009 27.4749C11.8788 27.4749 7.53045 27.6374 5.70677 26.9124C4.49098 26.4249 3.55432 25.4812 3.06429 24.2499C2.33853 22.4062 2.50602 18.0312 2.50602 15.9937C2.50602 13.9562 2.34474 9.57495 3.06429 7.73745C3.54812 6.51245 4.48477 5.5687 5.70677 5.07495C7.53665 4.3437 11.8788 4.51245 13.9009 4.51245C15.9231 4.51245 20.2714 4.34995 22.0951 5.07495C23.3109 5.56245 24.2476 6.5062 24.7376 7.73745C25.4633 9.5812 25.2959 13.9562 25.2959 15.9937C25.2959 18.0312 25.4633 22.4124 24.7376 24.2499Z" fill="white"/>
</g>
<defs>
<clipPath id="clip0_198_351">
<rect width="27.7895" height="32" fill="white"/>
</clipPath>
</defs>
</svg>
