<svg width="28" height="32" viewBox="0 0 28 32" fill="none" xmlns="http://www.w3.org/2000/svg">
<g clip-path="url(#clip0_198_347)">
<path d="M25.6988 2H1.97066C0.883398 2 0 2.90625 0 4.01875V27.9813C0 29.0938 0.883398 30 1.97066 30H25.6988C26.7861 30 27.6757 29.0938 27.6757 27.9813V4.01875C27.6757 2.90625 26.7861 2 25.6988 2ZM8.36448 26H4.26255V12.6375H8.37066V26H8.36448ZM6.31351 10.8125C4.99768 10.8125 3.93514 9.73125 3.93514 8.40625C3.93514 7.08125 4.99768 6 6.31351 6C7.62317 6 8.69189 7.08125 8.69189 8.40625C8.69189 9.7375 7.62934 10.8125 6.31351 10.8125V10.8125ZM23.7405 26H19.6386V19.5C19.6386 17.95 19.6077 15.9563 17.5073 15.9563C15.3699 15.9563 15.0425 17.6438 15.0425 19.3875V26H10.9405V12.6375H14.8757V14.4625H14.9313C15.4811 13.4125 16.8216 12.3062 18.817 12.3062C22.9683 12.3062 23.7405 15.075 23.7405 18.675V26V26Z" fill="white"/>
</g>
<defs>
<clipPath id="clip0_198_347">
<rect width="27.6757" height="32" fill="white"/>
</clipPath>
</defs>
</svg>
