<svg width="20" height="15" viewBox="0 0 20 15" fill="none" xmlns="http://www.w3.org/2000/svg">
<path d="M2.5 1.77069C2.15625 1.77069 1.875 2.03629 1.875 2.36092V3.17618L8.61328 8.39971C9.42188 9.02683 10.582 9.02683 11.3906 8.39971L18.125 3.17618V2.36092C18.125 2.03629 17.8438 1.77069 17.5 1.77069H2.5ZM1.875 5.46701V11.8046C1.875 12.1292 2.15625 12.3948 2.5 12.3948H17.5C17.8438 12.3948 18.125 12.1292 18.125 11.8046V5.46701L12.5781 9.76831C11.0781 10.9303 8.91797 10.9303 7.42188 9.76831L1.875 5.46701ZM0 2.36092C0 1.05873 1.12109 0 2.5 0H17.5C18.8789 0 20 1.05873 20 2.36092V11.8046C20 13.1068 18.8789 14.1655 17.5 14.1655H2.5C1.12109 14.1655 0 13.1068 0 11.8046V2.36092Z" fill="white"/>
</svg>
