<svg width="55" height="58" viewBox="0 0 55 58" fill="none" xmlns="http://www.w3.org/2000/svg">
<g clip-path="url(#clip0_309_69)">
<path d="M32.8976 22.6348C32.8976 20.2607 31.2184 18.9502 28.2691 18.9502H22.8441V26.5986H27.4188C30.9493 26.5879 32.8976 25.1699 32.8976 22.6348ZM52.6493 21.2598C51.6267 17.9404 51.476 13.8691 51.5944 10.7217C51.7129 7.44531 49.151 4.4375 45.7066 4.4375H10.3149C6.85972 4.4375 4.30868 7.45605 4.42708 10.7217C4.53472 13.8691 4.39479 17.9404 3.37222 21.2598C2.33889 24.5898 0.605902 26.6953 -2.24653 26.9639V30.0254C0.595138 30.2939 2.33889 32.3994 3.37222 35.7295C4.39479 39.0488 4.54549 43.1201 4.42708 46.2676C4.30868 49.5439 6.87049 52.5518 10.3149 52.5518H45.6958C49.151 52.5518 51.7021 49.5332 51.5837 46.2676C51.476 43.1201 51.616 39.0488 52.6385 35.7295C53.6719 32.3994 55.4049 30.2939 58.2465 30.0254V26.9639C55.4156 26.6953 53.6719 24.5898 52.6493 21.2598ZM29.3132 41.2939H18.7753V15.6953H29.2594C33.9201 15.6953 36.9771 18.209 36.9771 22.0762C36.9771 24.7939 34.9212 27.2217 32.2948 27.6406V27.7803C35.8684 28.167 38.2687 30.6377 38.2687 34.043C38.2687 38.5654 34.8997 41.2939 29.3132 41.2939ZM28.2368 29.6172H22.8441V38.0391H28.4736C32.1549 38.0391 34.1031 36.5674 34.1031 33.7959C34.1031 31.0352 32.101 29.6172 28.2368 29.6172Z" fill="#1BA098"/>
</g>
<defs>
<clipPath id="clip0_309_69">
<rect width="55" height="57.5287" fill="white"/>
</clipPath>
</defs>
</svg>
