<svg width="55" height="58" viewBox="0 0 55 58" fill="none" xmlns="http://www.w3.org/2000/svg">
<path d="M8.4948 11.2902C8.4948 5.60708 13.074 1 18.7227 1H36.2724C41.9211 1 46.5003 5.60708 46.5003 11.2902C46.5003 14.8888 44.6643 18.056 41.8832 19.8952C44.6643 21.7345 46.5003 24.9016 46.5003 28.5002C46.5003 34.1834 41.9211 38.7905 36.2724 38.7905H36.0503C33.4022 38.7905 30.9891 37.7779 29.1727 36.1166V45.598C29.1727 51.3569 24.4738 56 18.7778 56C13.1432 56 8.4948 51.407 8.4948 45.7097C8.4948 42.1113 10.3307 38.9443 13.1115 37.105C10.3307 35.2658 8.4948 32.0986 8.4948 28.5002C8.4948 24.9016 10.3308 21.7345 13.1118 19.8952C10.3308 18.056 8.4948 14.8888 8.4948 11.2902ZM25.8224 21.5806H18.7227C14.9242 21.5806 11.845 24.6787 11.845 28.5002C11.845 32.307 14.9005 35.3958 18.6787 35.4197C18.6933 35.4196 18.708 35.4196 18.7227 35.4196H25.8224V21.5806ZM29.1727 28.5002C29.1727 32.3217 32.2518 35.4198 36.0503 35.4198H36.2724C40.0709 35.4198 43.15 32.3217 43.15 28.5002C43.15 24.6787 40.0709 21.5806 36.2724 21.5806H36.0503C32.2518 21.5806 29.1727 24.6787 29.1727 28.5002ZM18.7227 38.7905C18.708 38.7905 18.6933 38.7904 18.6787 38.7904C14.9005 38.8141 11.845 41.9029 11.845 45.7097C11.845 49.5173 14.9654 52.6293 18.7778 52.6293C22.6516 52.6293 25.8224 49.4672 25.8224 45.598V38.7905H18.7227ZM18.7227 4.37066C14.9242 4.37066 11.845 7.46866 11.845 11.2902C11.845 15.1118 14.9242 18.2097 18.7227 18.2097H25.8224V4.37066H18.7227ZM29.1727 18.2097H36.2724C40.0709 18.2097 43.15 15.1118 43.15 11.2902C43.15 7.46866 40.0709 4.37066 36.2724 4.37066H29.1727V18.2097Z" fill="#1BA098"/>
</svg>
