<svg width="55" height="58" viewBox="0 0 55 58" fill="none" xmlns="http://www.w3.org/2000/svg">
<path d="M10.0106 36.3826L15.1078 3.71887C15.284 2.6049 16.7782 2.34172 17.3057 3.33752L22.7842 13.5909L10.0106 36.3826ZM46.4062 43.9688L41.3854 14.2355C41.3489 14.0229 41.2551 13.8244 41.1139 13.6614C40.9727 13.4984 40.7897 13.3772 40.5845 13.3108C40.3794 13.2444 40.16 13.2354 39.9501 13.2848C39.7402 13.3342 39.5478 13.44 39.3937 13.5909L8.59375 43.9688L25.7125 53.8419C26.2378 54.13 26.8273 54.281 27.4264 54.281C28.0255 54.281 28.615 54.13 29.1403 53.8419L46.4062 43.9688ZM32.4801 18.0726L28.5549 10.6025C28.4573 10.4106 28.3085 10.2494 28.125 10.1368C27.9414 10.0243 27.7303 9.96471 27.515 9.96471C27.2997 9.96471 27.0886 10.0243 26.9051 10.1368C26.7216 10.2494 26.5728 10.4106 26.4752 10.6025L9.22002 41.3627L32.4801 18.0726Z" fill="#1BA098"/>
</svg>
