<svg width="55" height="58" viewBox="0 0 55 58" fill="none" xmlns="http://www.w3.org/2000/svg">
<path d="M18.7272 43.6895C18.7272 43.9043 18.4815 44.0762 18.1716 44.0762C17.819 44.1084 17.5732 43.9365 17.5732 43.6895C17.5732 43.4746 17.819 43.3027 18.1288 43.3027C18.4494 43.2705 18.7272 43.4424 18.7272 43.6895ZM15.404 43.2061C15.3292 43.4209 15.5429 43.668 15.8635 43.7324C16.1413 43.8398 16.4619 43.7324 16.526 43.5176C16.5901 43.3027 16.3871 43.0557 16.0665 42.959C15.7887 42.8838 15.4788 42.9912 15.404 43.2061ZM20.127 43.0234C19.8171 43.0986 19.6034 43.3027 19.6355 43.5498C19.6675 43.7646 19.9454 43.9043 20.2659 43.8291C20.5758 43.7539 20.7895 43.5498 20.7575 43.335C20.7254 43.1309 20.4369 42.9912 20.127 43.0234ZM27.1581 1.85938C12.3373 1.85938 1 13.1709 1 28.0703C1 39.9834 8.45847 50.1777 19.1119 53.7656C20.4796 54.0127 20.9605 53.1641 20.9605 52.4658C20.9605 51.7998 20.9284 48.126 20.9284 45.8701C20.9284 45.8701 13.4486 47.4814 11.8778 42.6689C11.8778 42.6689 10.6597 39.543 8.90726 38.7373C8.90726 38.7373 6.46028 37.0508 9.07823 37.083C9.07823 37.083 11.7389 37.2979 13.2028 39.8545C15.5429 44.001 19.4645 42.8086 20.9925 42.0996C21.2383 40.3809 21.9329 39.1885 22.7022 38.4795C16.729 37.8135 10.7024 36.9434 10.7024 26.6094C10.7024 23.6553 11.5145 22.1729 13.2242 20.2822C12.9464 19.584 12.0381 16.7051 13.502 12.9883C15.7353 12.29 20.875 15.8887 20.875 15.8887C23.0121 15.2871 25.3095 14.9756 27.5855 14.9756C29.8615 14.9756 32.1589 15.2871 34.296 15.8887C34.296 15.8887 39.4357 12.2793 41.669 12.9883C43.1329 16.7158 42.2246 19.584 41.9468 20.2822C43.6565 22.1836 44.7036 23.666 44.7036 26.6094C44.7036 36.9756 38.4099 37.8027 32.4367 38.4795C33.4198 39.3281 34.2532 40.9395 34.2532 43.4639C34.2532 47.084 34.2212 51.5635 34.2212 52.4443C34.2212 53.1426 34.7127 53.9912 36.0698 53.7441C46.7552 50.1777 54 39.9834 54 28.0703C54 13.1709 41.9788 1.85938 27.1581 1.85938ZM11.3863 38.9092C11.2474 39.0166 11.2794 39.2637 11.4611 39.4678C11.6321 39.6396 11.8778 39.7148 12.0167 39.5752C12.1556 39.4678 12.1236 39.2207 11.9419 39.0166C11.771 38.8447 11.5252 38.7695 11.3863 38.9092ZM10.2323 38.0391C10.1575 38.1787 10.2643 38.3506 10.478 38.458C10.649 38.5654 10.8627 38.5332 10.9375 38.3828C11.0123 38.2432 10.9054 38.0713 10.6917 37.9639C10.478 37.8994 10.3071 37.9316 10.2323 38.0391ZM13.6944 41.8633C13.5234 42.0029 13.5875 42.3252 13.8333 42.5293C14.079 42.7764 14.3889 42.8086 14.5278 42.6367C14.6667 42.4971 14.6026 42.1748 14.3889 41.9707C14.1538 41.7236 13.8333 41.6914 13.6944 41.8633ZM12.4762 40.2842C12.3052 40.3916 12.3052 40.6709 12.4762 40.918C12.6472 41.165 12.9357 41.2725 13.0746 41.165C13.2456 41.0254 13.2456 40.7461 13.0746 40.499C12.925 40.252 12.6472 40.1445 12.4762 40.2842Z" fill="#1BA098"/>
</svg>
