<svg width="55" height="58" viewBox="0 0 55 58" fill="none" xmlns="http://www.w3.org/2000/svg">
<path d="M46.8571 4.4375H9.14286C6.30357 4.4375 4 6.74707 4 9.59375V47.4062C4 50.2529 6.30357 52.5625 9.14286 52.5625H46.8571C49.6964 52.5625 52 50.2529 52 47.4062V9.59375C52 6.74707 49.6964 4.4375 46.8571 4.4375ZM30.1214 41.9707C30.1214 46.6543 27.3786 48.792 23.3821 48.792C19.7714 48.792 17.6821 46.9229 16.6107 44.6562L20.2857 42.4326C20.9929 43.6895 21.6357 44.7529 23.1893 44.7529C24.6679 44.7529 25.6107 44.1729 25.6107 41.9062V26.5342H30.1214V41.9707ZM40.7929 48.792C36.6036 48.792 33.8929 46.7939 32.575 44.1729L36.25 42.0459C37.2143 43.625 38.4786 44.7959 40.6964 44.7959C42.5607 44.7959 43.7607 43.8613 43.7607 42.5615C43.7607 41.0146 42.5393 40.4668 40.4714 39.5537L39.3464 39.0703C36.0893 37.6846 33.9357 35.9336 33.9357 32.249C33.9357 28.8545 36.5179 26.2764 40.5357 26.2764C43.4071 26.2764 45.4643 27.2754 46.9429 29.8965L43.4286 32.1523C42.6571 30.7666 41.8214 30.2188 40.525 30.2188C39.2071 30.2188 38.3714 31.0566 38.3714 32.1523C38.3714 33.5059 39.2071 34.0537 41.1464 34.9023L42.2714 35.3857C46.1071 37.0293 48.2607 38.7158 48.2607 42.4971C48.2607 46.5576 45.0679 48.792 40.7929 48.792Z" fill="#1BA098"/>
</svg>
