<svg width="55" height="49" viewBox="0 0 55 49" fill="none" xmlns="http://www.w3.org/2000/svg">
<path d="M44.9238 16.0352C44.3438 15.8418 43.7637 15.6592 43.1836 15.4873C43.2803 15.0898 43.3662 14.6924 43.4521 14.2949C44.7734 7.89258 43.9033 2.74707 40.9707 1.0498C38.1455 -0.572266 33.5371 1.11426 28.875 5.1748C28.4131 5.57226 27.9619 5.99121 27.5322 6.41016C27.2422 6.13086 26.9414 5.85156 26.6406 5.58301C21.7529 1.24316 16.8545 -0.583008 13.9219 1.125C11.1074 2.75781 10.2695 7.60254 11.4512 13.6611C11.5693 14.2627 11.6982 14.8535 11.8486 15.4551C11.1611 15.6484 10.4844 15.8633 9.85059 16.0889C4.11426 18.0762 0 21.2129 0 24.457C0 27.8086 4.38281 31.1709 10.3447 33.2119C10.8281 33.373 11.3115 33.5342 11.8057 33.6738C11.6445 34.3184 11.5049 34.9521 11.376 35.6074C10.248 41.5693 11.1289 46.2959 13.9434 47.918C16.8438 49.5937 21.7207 47.875 26.4687 43.7178C26.8447 43.3848 27.2207 43.041 27.5967 42.6758C28.0693 43.1377 28.5635 43.5781 29.0576 44.0078C33.6553 47.9609 38.1992 49.5615 41.0029 47.9395C43.9033 46.2637 44.8486 41.1826 43.624 34.9951C43.5273 34.5225 43.4199 34.0391 43.3018 33.5449C43.6455 33.4482 43.9785 33.3408 44.3115 33.2334C50.5098 31.1816 55 27.8623 55 24.457C55 21.2021 50.7676 18.0439 44.9238 16.0352V16.0352ZM30.3896 6.91504C34.3857 3.43457 38.1133 2.07031 39.8105 3.04785C41.626 4.08984 42.3242 8.30078 41.1855 13.833C41.1104 14.1982 41.0352 14.5527 40.9385 14.9072C38.5537 14.3701 36.1367 13.9834 33.709 13.7686C32.3125 11.7705 30.7871 9.8584 29.1328 8.06445C29.5518 7.66699 29.96 7.29102 30.3896 6.91504V6.91504ZM17.9609 30.0322C18.5088 30.9668 19.0674 31.9014 19.6582 32.8145C17.9824 32.6318 16.3174 32.3633 14.6738 32.0088C15.1465 30.4619 15.7373 28.8613 16.4248 27.2285C16.9189 28.1738 17.4238 29.1084 17.9609 30.0322V30.0322ZM14.7061 17.1094C16.2529 16.7656 17.8965 16.4863 19.6045 16.2715C19.0352 17.1631 18.4766 18.0762 17.9502 19C17.4238 19.9131 16.9082 20.8477 16.4248 21.793C15.748 20.1924 15.1787 18.624 14.7061 17.1094ZM17.6494 24.5107C18.3584 23.0283 19.1318 21.5781 19.9482 20.1494C20.7646 18.7207 21.6455 17.335 22.5693 15.9707C24.1807 15.8525 25.8242 15.7881 27.5 15.7881C29.1758 15.7881 30.8301 15.8525 32.4307 15.9707C33.3437 17.3242 34.2139 18.71 35.041 20.1279C35.8682 21.5459 36.6416 22.9961 37.3721 24.4678C36.6523 25.9502 35.8789 27.4111 35.0518 28.8506C34.2354 30.2793 33.3652 31.665 32.4521 33.04C30.8516 33.1582 29.1865 33.2119 27.5 33.2119C25.8135 33.2119 24.1807 33.1582 22.6016 33.0615C21.667 31.6973 20.7861 30.3008 19.959 28.8721C19.1318 27.4434 18.3691 25.9932 17.6494 24.5107ZM37.0498 30.0107C37.5977 29.0654 38.1133 28.1094 38.6182 27.1426C39.3057 28.7002 39.9072 30.2793 40.4336 31.9014C38.7686 32.2773 37.082 32.5674 35.3848 32.7607C35.9648 31.8584 36.5127 30.9346 37.0498 30.0107ZM38.5967 21.793C38.0918 20.8477 37.5762 19.9023 37.0391 18.9785C36.5127 18.0654 35.9648 17.1631 35.3955 16.2715C37.125 16.4863 38.7793 16.7764 40.3262 17.1309C39.832 18.7207 39.252 20.2676 38.5967 21.793V21.793ZM27.5215 9.70801C28.6494 10.9326 29.7129 12.2217 30.7012 13.5537C28.5742 13.457 26.4365 13.457 24.3096 13.5537C25.3623 12.168 26.4473 10.8789 27.5215 9.70801ZM15.0605 3.12305C16.8652 2.07031 20.8721 3.57422 25.0938 7.3125C25.3623 7.54883 25.6309 7.80664 25.9102 8.06445C24.2451 9.8584 22.709 11.7705 21.3018 13.7686C18.874 13.9834 16.4678 14.3594 14.083 14.8857C13.9434 14.3379 13.8252 13.7793 13.707 13.2207C12.6973 8.02148 13.3633 4.10059 15.0605 3.12305V3.12305ZM12.4287 31.4395C11.9775 31.3105 11.5371 31.1709 11.0967 31.0205C8.80859 30.3008 6.20898 29.1621 4.3291 27.6689C3.24414 26.917 2.51367 25.7568 2.30957 24.457C2.30957 22.4912 5.7041 19.9775 10.6025 18.2695C11.2148 18.0547 11.8379 17.8613 12.4609 17.6787C13.1914 20.0098 14.0723 22.2979 15.0928 24.5107C14.0615 26.7559 13.1699 29.0762 12.4287 31.4395V31.4395ZM24.9541 41.9668C23.1816 43.5889 21.1299 44.8779 18.8955 45.7588C17.7031 46.3281 16.3281 46.3818 15.1035 45.8984C13.3955 44.9102 12.6865 41.1182 13.6533 36.0156C13.7715 35.4141 13.9004 34.8125 14.0508 34.2217C16.457 34.7373 18.8848 35.0918 21.3447 35.2744C22.7627 37.2832 24.3203 39.2061 25.9854 41.0107C25.6416 41.3437 25.2979 41.666 24.9541 41.9668ZM27.5859 39.3564C26.4902 38.1748 25.3945 36.8643 24.3311 35.457C25.3623 35.5 26.4258 35.5215 27.5 35.5215C28.6064 35.5215 29.6914 35.5 30.7656 35.4463C29.7773 36.8105 28.7139 38.1103 27.5859 39.3564V39.3564ZM41.626 42.5791C41.5293 43.8896 40.8848 45.1143 39.8535 45.9414C38.1455 46.9297 34.5039 45.6406 30.5723 42.2676C30.1211 41.8809 29.6699 41.4619 29.208 41.0322C30.8516 39.2168 32.3662 37.2939 33.7412 35.2744C36.2012 35.0703 38.6504 34.6943 41.0674 34.1465C41.1748 34.5869 41.2715 35.0273 41.3574 35.457C41.8838 37.7773 41.9697 40.1943 41.626 42.5791V42.5791ZM43.5811 31.0312C43.2803 31.1279 42.9795 31.2246 42.668 31.3105C41.916 28.9687 40.9922 26.6807 39.9287 24.457C40.96 22.2656 41.8301 20.0098 42.5605 17.7002C43.1191 17.8613 43.6563 18.0332 44.1719 18.2051C49.1777 19.9238 52.6904 22.4805 52.6904 24.4355C52.6904 26.541 48.9414 29.2588 43.5811 31.0312ZM27.5 29.4199C30.2178 29.4199 32.4199 27.2178 32.4199 24.5C32.4199 21.7822 30.2178 19.5801 27.5 19.5801C24.7822 19.5801 22.5801 21.7822 22.5801 24.5C22.5801 27.2178 24.7822 29.4199 27.5 29.4199Z" fill="#1BA098"/>
</svg>
