<svg width="55" height="58" viewBox="0 0 55 58" fill="none" xmlns="http://www.w3.org/2000/svg">
<path d="M25.9394 41.7043C25.9136 41.7688 25.8878 41.8203 25.9394 41.7043V41.7043ZM47.349 32.3586C45.6206 32.3579 43.9151 32.8541 42.3646 33.8088C41.8576 32.5305 41.3334 31.4133 41.2474 30.5754C41.1443 29.5979 41.0326 29.0178 41.1529 27.8577C41.2732 26.6975 41.8146 25.0539 41.806 24.9358C41.7974 24.8176 41.6857 24.2268 40.5771 24.216C39.4685 24.2053 38.5146 24.4846 38.4038 24.8498C38.208 25.5173 38.0556 26.2035 37.9483 26.9016C37.7506 28.1584 35.732 32.6487 34.589 34.9905C34.2109 34.0774 33.8929 33.2717 33.8241 32.6272C33.721 31.6496 33.6093 31.0696 33.7296 29.9094C33.8499 28.7493 34.3913 27.1057 34.3827 26.9875C34.3741 26.8694 34.2624 26.2785 33.1547 26.2678C32.047 26.2571 31.0922 26.5364 30.9805 26.9016C30.8688 27.2668 30.7484 28.1262 30.525 28.9534C30.3016 29.7805 27.6126 37.2571 26.9088 39.2014C26.5478 40.1897 26.2384 40.9846 26.015 41.5217C25.9806 41.6076 25.9548 41.6614 25.9377 41.7043C25.9634 41.6506 25.9806 41.5969 25.9806 41.6184C25.7916 42.0803 25.6798 42.3381 25.6798 42.3381V42.3489C25.5338 42.6926 25.3705 43.0041 25.2931 43.0041C25.2416 43.0041 25.1298 42.1018 25.3189 40.8664C25.7228 38.2668 26.6767 34.2278 26.6681 34.0881C26.6595 34.0129 26.8486 33.3147 26.0408 32.9387C25.2587 32.5842 24.9752 33.175 24.9064 33.175C24.8377 33.175 24.7861 33.3899 24.7861 33.3899C24.7861 33.3899 25.6541 28.8352 23.1198 28.8352C21.5385 28.8352 19.3385 31.0051 18.2574 32.9709C17.5785 33.4328 16.109 34.4319 14.5621 35.4953C13.9691 35.9035 13.359 36.3225 12.7832 36.72C12.7402 36.6662 12.7059 36.6125 12.6629 36.5588C9.58719 32.4553 3.90844 29.5549 4.14906 24.0442C4.235 22.0354 4.79359 16.761 15.0691 10.3586C23.491 5.11644 30.2242 6.55589 31.3835 9.75706C33.0507 14.3225 27.7836 22.8196 19.0377 24.0442C15.7042 24.5061 13.952 22.8948 13.5137 22.2932C13.0582 21.6594 12.9895 21.6272 12.8176 21.7453C12.534 21.9387 12.7145 22.4973 12.8176 22.8303C13.0754 23.6789 14.1496 25.1828 15.9792 25.9348C17.5863 26.5901 21.4947 26.9553 26.2204 24.6672C31.5296 22.1106 35.6623 14.9885 34.4506 9.0266C33.2166 2.968 25.1797 0.980697 17.5802 4.35374C13.0522 6.36253 8.15547 9.52074 4.63289 13.635C0.448593 18.5334 -0.22086 22.7981 0.0541396 24.5813C1.03297 30.9084 8.00937 35.0334 10.8015 38.0842C10.664 38.1809 10.5351 38.2668 10.4148 38.3528C9.01484 39.2229 3.69617 42.7034 2.365 46.3772C0.861093 50.5452 2.61422 53.5315 3.76492 53.9397C7.35625 55.1858 11.0335 52.9407 13.0092 49.2561C14.9849 45.5715 14.7452 40.759 13.8342 38.5676C13.8256 38.5354 13.8084 38.5139 13.7998 38.4817C14.1608 38.2131 14.5303 37.9446 14.8998 37.676C15.6123 37.1496 16.3084 36.6662 16.9185 36.2473C16.5748 37.4075 16.3255 38.8039 16.1966 40.8235C16.042 43.1868 16.824 46.2483 17.838 47.4514C18.2849 47.9778 18.8255 47.9885 19.1606 47.9885C20.3466 47.9885 20.8794 46.7639 21.4715 45.303C22.202 43.5198 22.8465 41.4465 22.8465 41.4465C22.8465 41.4465 22.0387 47.0539 24.2473 47.0539C25.0542 47.0539 25.862 45.7541 26.2238 45.0881V45.0989C26.2238 45.0989 26.241 45.0559 26.284 44.97C26.3699 44.8088 26.4129 44.7121 26.4129 44.7121V44.6799C26.7395 43.9817 27.4527 42.3811 28.5261 39.7385C29.9183 36.3225 31.2495 32.0578 31.2495 32.0578C31.3781 32.9953 31.5561 33.9212 31.7823 34.8293C32.0229 35.8498 32.5299 36.967 32.9338 38.052C32.6073 38.6106 32.4096 38.9328 32.4096 38.9328C32.4102 38.9411 32.4133 38.9488 32.4182 38.9543C32.1604 39.384 31.8682 39.8459 31.5674 40.2971C30.4683 41.9299 29.1612 43.7991 28.9893 44.3362C28.783 44.97 28.8346 45.4426 29.2299 45.8078C29.5221 46.0871 30.0377 46.1301 30.5783 46.0764C31.5666 45.9905 32.2627 45.6897 32.5978 45.4963C33.2157 45.2194 33.7997 44.8361 34.3329 44.3576C35.4071 43.3694 36.0602 41.9514 36.0001 40.0823C35.9657 39.051 35.6993 38.0198 35.3727 37.053C35.4673 36.8811 35.5704 36.6985 35.6649 36.5159C37.3656 33.4114 38.6805 30.0039 38.6805 30.0039C38.8091 30.9414 38.9871 31.8673 39.2133 32.7754C39.4195 33.6455 39.8226 34.6016 40.1921 35.5362C38.5945 37.1582 37.6063 39.0381 37.2625 40.2735C36.6266 42.5616 37.125 43.5928 38.0617 43.8291C38.4828 43.9366 39.0844 43.6895 39.5313 43.4532C40.1949 43.1768 40.8207 42.7747 41.3866 42.2608C42.4609 41.2725 43.4998 39.8868 43.4311 38.0069C43.4053 37.1582 43.2163 36.3096 42.967 35.4932C44.3163 34.7842 46.0685 34.3975 48.3029 34.7198C53.0879 35.418 54.0246 39.1563 53.8441 40.7139C53.6637 42.2715 52.6582 43.1416 52.3231 43.3994C51.9879 43.6573 51.8848 43.7539 51.9106 43.9473C51.9535 44.2266 52.1082 44.2159 52.3918 44.1514C52.7871 44.0655 54.9003 42.8838 54.9948 39.9942C55.1323 36.3418 52.3231 32.3243 47.3464 32.3565L47.349 32.3586ZM10.4663 47.9026C8.88594 50.0618 6.66875 50.8782 5.7157 50.1907C4.69305 49.4473 5.09695 46.2698 7.04687 43.9688C8.23281 42.5723 9.76164 41.2832 10.7757 40.4883C11.0077 40.3164 11.3429 40.0586 11.7554 39.7471C11.8241 39.6934 11.8585 39.6719 11.8585 39.6719C11.9359 39.6075 12.0218 39.5537 12.1077 39.4893C12.8202 42.7549 12.1335 45.6338 10.4663 47.9004V47.9026ZM22.0129 38.0842C21.4629 39.7707 20.3036 44.0676 19.5989 43.842C18.9973 43.6487 18.6278 40.3723 19.4786 37.1496C19.9083 35.5276 20.8192 33.594 21.3606 32.842C22.2277 31.6282 23.1816 31.2414 23.4051 31.7248C23.7059 32.3586 22.3566 37.0315 22.0129 38.0842ZM31.552 43.7776C31.3199 43.928 31.1051 44.0246 31.002 43.9494C30.9246 43.8957 31.0965 43.6916 31.0965 43.6916C31.0965 43.6916 32.291 42.091 32.7637 41.3606C33.0387 40.9309 33.3566 40.426 33.6995 39.8674C33.6995 39.9211 33.7081 39.9748 33.7081 40.0393C33.697 41.9621 32.2197 43.2619 31.5494 43.7776H31.552ZM38.9065 41.6828C38.7346 41.5325 38.7604 41.0276 39.3362 39.4592C39.5596 38.8469 40.0744 37.8157 40.969 36.8274C41.0703 37.2015 41.1253 37.5927 41.1323 37.9875C41.1237 40.4045 39.7401 41.3069 38.9073 41.6828H38.9065Z" fill="#1BA098"/>
</svg>
