<svg width="55" height="58" viewBox="0 0 55 58" fill="none" xmlns="http://www.w3.org/2000/svg">
<path d="M0 28.5V56H27.5H55V28.5V1H27.5H0V28.5Z" fill="#1BA098"/>
<path d="M12.1626 28.6825L12.1451 30.9349H15.7245L19.3038 30.9349V41.1055V51.2761H21.8356H24.3673V41.1055L24.3673 30.9349H27.9467H31.526V28.7261C31.526 27.5039 31.4999 26.4825 31.4649 26.4563C31.4387 26.4214 27.0824 26.4039 21.8006 26.4126L12.1887 26.4388L12.1626 28.6825Z" fill="white"/>
<path d="M44.3795 26.3749C45.7764 26.7241 46.8415 27.3439 47.8192 28.3566C48.3256 28.8979 49.0764 29.8844 49.1375 30.1201C49.1549 30.19 46.7629 31.7963 45.3137 32.6955C45.2613 32.7305 45.0518 32.5035 44.8161 32.1543C44.1089 31.1241 43.3668 30.6789 42.2319 30.6003C40.5645 30.4868 39.4907 31.3598 39.4994 32.8178C39.4994 33.2455 39.5605 33.4987 39.7351 33.8479C40.1018 34.6074 40.7827 35.0614 42.9216 35.9868C46.8589 37.6805 48.5438 38.7979 49.5915 40.3868C50.7613 42.159 51.0232 44.9876 50.2288 47.0916C49.3557 49.3789 47.1907 50.9328 44.1438 51.4479C43.201 51.6138 40.9661 51.5876 39.9534 51.4043C37.7446 51.0114 35.6494 49.9201 34.3573 48.4884C33.851 47.9297 32.8645 46.4717 32.9256 46.367C32.9518 46.332 33.1788 46.1924 33.4319 46.0439C33.6764 45.9043 34.6018 45.3717 35.4748 44.8654L37.0549 43.9487L37.3867 44.4376C37.8494 45.1447 38.8621 46.1138 39.4732 46.4368C41.228 47.3622 43.6375 47.2312 44.8248 46.1662C45.3311 45.7035 45.5407 45.2233 45.5407 44.5162C45.5407 43.8789 45.4621 43.5995 45.1303 43.1193C44.7026 42.5082 43.8295 41.9932 41.3502 40.9193C38.5129 39.6971 37.2907 38.9376 36.1732 37.7328C35.5272 37.0344 34.9161 35.917 34.6629 34.9828C34.4534 34.2059 34.401 32.259 34.5668 31.4733C35.1518 28.732 37.2208 26.8201 40.2065 26.2527C41.1756 26.0693 43.428 26.1392 44.3795 26.3749Z" fill="white"/>
</svg>
